<svg width="570" height="484" viewBox="0 0 570 484" fill="none" xmlns="http://www.w3.org/2000/svg">
<path opacity="0.31" d="M557.739 375.355H12.2611C5.57321 375.355 0 369.921 0 363.094C0 356.406 5.43388 350.833 12.2611 350.833H557.739C564.427 350.833 570 356.267 570 363.094C569.861 369.921 564.427 375.355 557.739 375.355Z" fill="#2E3190"/>
<path d="M21.1782 357.104V206.488H104.916V229.478H45.979V269.744H96.8345V292.316H45.979V333.836H105.055V357.244H21.1782V357.104Z" fill="#060305"/>
<path d="M190.046 357.104L167.475 294.406H148.247V357.104H123.586V206.488H172.073C178.343 206.488 184.055 207.324 189.35 209.136C194.644 210.947 199.242 213.594 203.143 217.217C206.905 220.839 209.971 225.298 212.061 230.732C214.29 236.166 215.265 242.435 215.265 249.681C215.265 259.155 213.175 267.376 209.274 274.342C205.233 281.309 199.242 286.603 191.3 290.086L217.077 356.965H190.046V357.104ZM191.161 249.681C191.161 242.575 189.35 237.42 185.727 233.936C182.105 230.592 176.949 228.781 170.122 228.781H148.247V271.834H169.983C176.531 271.834 181.687 270.023 185.449 266.261C189.21 262.638 191.161 257.065 191.161 249.681Z" fill="#060305"/>
<path d="M304.297 357.104L281.726 294.406H262.498V357.104H237.837V206.488H286.324C292.593 206.488 298.306 207.324 303.601 209.136C308.895 210.947 313.493 213.594 317.394 217.217C321.156 220.839 324.221 225.298 326.311 230.732C328.401 236.166 329.516 242.435 329.516 249.681C329.516 259.155 327.426 267.376 323.385 274.342C319.345 281.309 313.354 286.603 305.412 290.086L331.188 356.965H304.297V357.104ZM305.412 249.681C305.412 242.575 303.601 237.42 299.978 233.936C296.355 230.592 291.2 228.781 284.373 228.781H262.498V271.834H284.234C290.782 271.834 295.937 270.023 299.699 266.261C303.461 262.638 305.412 257.065 305.412 249.681Z" fill="#060305"/>
<path d="M440.423 311.403C440.423 318.648 439.308 325.057 437.079 330.909C434.85 336.622 431.645 341.638 427.604 345.678C423.425 349.858 418.687 352.923 412.975 355.153C407.402 357.382 401.132 358.357 394.305 358.357C386.084 358.357 378.978 356.964 373.126 354.317C367.274 351.669 362.398 348.047 358.775 343.449C355.153 338.851 352.366 333.696 350.694 327.705C349.022 321.713 348.047 315.444 348.047 308.756V251.77C348.047 246.475 348.883 241.041 350.555 235.468C352.227 230.034 354.874 225.018 358.497 220.56C362.119 216.101 366.996 212.479 372.848 209.553C378.7 206.627 385.805 205.233 394.444 205.233C402.386 205.233 409.213 206.627 415.065 209.413C420.777 212.2 425.654 215.683 429.416 220.142C433.178 224.6 436.104 229.477 437.915 235.05C439.726 240.623 440.562 246.196 440.562 251.77V311.403H440.423ZM415.343 251.491C415.343 249.68 415.065 247.45 414.368 244.943C413.671 242.435 412.557 239.927 411.024 237.697C409.492 235.329 407.262 233.378 404.615 231.706C401.968 230.034 398.484 229.198 394.305 229.198C390.125 229.198 386.641 229.895 383.855 231.427C381.068 232.96 378.839 234.771 377.167 237.001C375.495 239.23 374.38 241.599 373.544 244.246C372.848 246.893 372.43 249.262 372.43 251.63L372.708 309.313C372.708 316.558 374.38 322.549 377.724 327.565C381.068 332.442 386.641 334.95 394.583 334.95C400.156 334.95 405.033 332.999 409.213 329.237C413.393 325.336 415.343 320.181 415.343 313.493V251.491Z" fill="#060305"/>
<path d="M530.291 357.104L507.719 294.406H488.492V357.104H463.83V206.488H512.317C518.587 206.488 524.3 207.324 529.594 209.136C534.889 210.947 539.487 213.594 543.388 217.217C547.15 220.839 550.215 225.298 552.305 230.732C554.534 236.166 555.51 242.435 555.51 249.681C555.51 259.155 553.42 267.376 549.379 274.342C545.338 281.309 539.347 286.603 531.405 290.086L557.182 356.965H530.291V357.104ZM531.405 249.681C531.405 242.575 529.594 237.42 525.972 233.936C522.349 230.592 517.194 228.781 510.367 228.781H488.492V271.834H510.088C516.636 271.834 521.792 270.023 525.554 266.261C529.455 262.638 531.405 257.065 531.405 249.681Z" fill="#060305"/>
<path d="M189.907 45.5615V76.3535" stroke="#8B8FEF" stroke-width="3" stroke-miterlimit="10"/>
<path d="M248.426 0H131.388V54.1995H248.426V0Z" fill="#060305"/>
<path d="M174.999 35.6705V40.547H169.704V35.6705H157.443V30.9332L166.778 6.8291H172.352L163.156 30.5152H169.565V22.0161H174.859V30.6546H177.367V35.6705H174.999Z" fill="white"/>
<path d="M198.824 32.3259C198.824 33.7192 198.546 34.8338 198.128 35.9485C197.71 36.9238 197.013 37.8991 196.177 38.5958C195.341 39.2924 194.505 39.8497 193.39 40.2677C192.415 40.6857 191.3 40.825 190.046 40.825C188.932 40.825 187.817 40.6857 186.703 40.2677C185.588 39.8497 184.752 39.2924 183.916 38.5958C183.08 37.8991 182.523 36.9238 182.105 35.9485C181.687 34.9732 181.408 33.7192 181.408 32.3259V15.049C181.408 13.6556 181.687 12.541 182.105 11.4264C182.523 10.3117 183.219 9.47574 184.055 8.77909C184.891 8.08244 185.727 7.52512 186.842 7.10713C187.817 6.68914 188.932 6.5498 190.186 6.5498C191.3 6.5498 192.415 6.68914 193.53 7.10713C194.644 7.52512 195.48 8.08244 196.316 8.77909C197.152 9.47574 197.71 10.4511 198.128 11.4264C198.546 12.541 198.824 13.6556 198.824 15.049V32.3259ZM193.53 15.049C193.53 13.9343 193.251 13.0983 192.554 12.541C191.997 11.9837 191.161 11.705 190.186 11.705C189.21 11.705 188.374 11.9837 187.817 12.541C187.26 13.0983 186.842 13.9343 186.842 15.049V32.3259C186.842 33.4405 187.121 34.2765 187.817 34.8338C188.374 35.3912 189.21 35.6698 190.186 35.6698C191.161 35.6698 191.997 35.3912 192.554 34.8338C193.112 34.2765 193.53 33.4405 193.53 32.3259V15.049Z" fill="white"/>
<path d="M219.863 35.6705V40.547H214.569V35.6705H202.447V30.9332L211.782 6.8291H217.355L208.159 30.5152H214.569V22.0161H219.863V30.6546H222.371V35.6705H219.863Z" fill="white"/>
<path d="M409.91 196.455C411.164 197.709 411.86 199.799 412.278 201.332C413.253 204.257 414.229 207.323 415.204 210.249C416.179 213.314 417.155 216.379 416.597 219.444C416.319 220.698 415.901 221.952 414.786 222.51C414.089 222.928 413.253 222.928 412.418 222.788C410.328 222.37 408.795 220.42 407.959 218.469C407.123 216.519 406.844 214.289 406.008 212.339C404.615 208.855 401.968 205.233 398.067 204.815C396.116 204.536 393.469 204.397 392.075 202.725C390.682 201.053 390.543 197.152 392.493 195.898C393.19 195.48 393.887 195.201 394.723 195.062C397.23 194.644 399.738 194.783 402.246 195.062C404.476 195.201 406.705 194.783 408.795 195.758C409.352 195.898 409.631 196.176 409.91 196.455Z" fill="white" stroke="black" stroke-miterlimit="10"/>
<path d="M196.734 86.941C197.152 85.1297 197.431 83.4577 197.849 81.6464C198.546 77.8845 200.636 73.9832 197.71 70.7786C195.202 67.8527 189.768 68.828 186.702 70.6393C183.637 72.3113 181.687 75.9339 182.383 79.2778C183.08 82.2037 185.727 84.5723 188.792 84.5723C187.956 87.2196 187.26 89.8669 186.563 92.3748C185.588 96.1368 187.956 97.5301 191.3 96.6941C192.136 96.5547 192.972 96.2761 193.669 95.7188C194.644 94.8828 195.062 93.6288 195.341 92.3748C195.898 90.7029 196.316 88.8916 196.734 86.941Z" fill="white" stroke="black" stroke-miterlimit="10"/>
<path d="M398.066 191.998C397.509 191.858 397.091 191.719 396.534 191.719C380.65 188.793 363.234 183.916 346.932 185.449C343.449 185.728 339.966 186.424 336.483 186.703C324.639 187.4 313.214 183.22 301.789 180.712C297.191 179.737 292.454 179.179 287.856 178.204C282.144 177.089 276.292 178.204 270.579 177.507C265.563 176.811 260.687 174.721 255.671 175.278C249.262 176.114 243.549 180.155 241.738 186.564C240.902 189.768 241.32 193.252 242.017 196.456C242.713 199.521 243.967 202.726 246.615 204.259C252.327 207.463 262.916 205.373 269.186 205.513C277.685 205.652 286.184 205.931 294.544 206.209C311.264 206.767 327.983 207.324 344.564 206.906C361.701 206.488 378.978 206.906 396.116 207.463C397.091 202.169 397.649 197.153 398.066 191.998Z" fill="#8B8FEF"/>
<path d="M115.923 225.437C113.415 228.084 112.161 231.707 111.186 235.19C110.628 237.28 110.35 239.51 111.046 241.46C111.743 243.968 114.111 246.337 117.037 245.779C118.849 245.361 120.242 243.411 120.242 241.599C120.242 240.624 119.685 239.649 118.988 238.952C119.127 238.116 119.267 237.28 119.406 236.444C119.406 236.166 119.545 235.748 119.824 235.608C120.66 234.772 120.939 236.026 120.799 236.584C120.799 237.141 120.103 238.674 120.939 239.092C121.357 239.231 121.775 238.674 121.914 238.116C122.332 236.305 122.471 234.494 122.611 232.682C122.75 231.01 122.889 229.338 123.029 227.666C123.029 227.109 123.168 226.552 123.029 225.994C122.75 224.462 121.078 223.069 119.406 223.208C118.013 223.626 116.759 224.462 115.923 225.437Z" fill="white" stroke="black" stroke-miterlimit="10"/>
<path opacity="0.31" d="M441.955 135.01L440.701 135.568C440.283 135.707 439.866 135.568 439.587 135.289C438.333 133.756 437.218 132.642 435.686 131.806C435.407 131.666 435.268 131.109 435.268 130.83L435.825 129.019C435.964 128.601 435.686 128.044 435.268 127.904L431.645 126.511C431.227 126.372 430.67 126.511 430.53 127.069L429.834 128.88C429.694 129.298 429.276 129.437 428.998 129.437C427.326 129.298 425.375 129.437 423.703 129.855C423.285 129.994 422.728 129.855 422.589 129.437L421.753 127.765C421.613 127.347 421.195 126.651 420.777 126.929L417.155 128.601C416.737 128.74 416.597 129.716 416.737 130.134L417.573 131.806C417.712 132.224 417.712 132.502 417.433 132.781C416.179 133.756 415.065 135.01 414.229 136.404C413.95 136.682 413.671 136.822 413.253 136.682L411.581 135.986C411.163 135.846 410.606 135.986 410.467 136.543L409.213 140.166C409.074 140.584 409.213 141.141 409.77 141.28L411.581 141.977C411.999 142.116 412.139 142.534 412.139 142.813C411.86 144.485 411.999 146.017 412.417 147.968C412.557 148.386 412.278 148.804 411.999 148.943L410.467 149.64C410.049 149.779 409.77 150.337 409.91 150.755L411.581 154.377C411.721 154.795 412.278 154.795 412.835 154.656L414.368 153.959C414.786 153.82 415.204 153.959 415.483 154.238C416.458 155.492 417.712 156.607 419.245 157.582C419.523 157.86 419.663 158.278 419.523 158.557L418.966 160.09C418.827 160.508 418.966 161.065 419.523 161.204L423.146 162.458C423.564 162.598 424.121 162.319 424.261 161.901L424.818 160.368C424.957 159.95 425.375 159.672 425.793 159.811C427.465 159.95 429.137 159.95 430.67 159.672C431.088 159.532 431.366 159.811 431.645 160.229L432.481 161.901C432.62 162.319 433.178 162.319 433.735 162.04L437.358 160.368C437.776 160.229 437.776 159.95 437.497 159.532L436.661 157.86C436.522 157.443 436.8 157.025 437.079 156.746C438.472 155.631 439.726 154.238 440.701 152.845C440.98 152.566 441.398 152.427 441.677 152.427L443.349 152.984C443.767 153.123 444.324 152.845 444.463 152.427L445.717 148.804C445.857 148.386 445.578 147.829 445.16 147.689L443.767 147.271C443.349 147.132 443.07 146.714 443.209 146.435C443.349 144.763 443.209 142.952 442.931 141.42C442.791 141.002 443.07 140.584 443.349 140.444L444.603 139.887C445.021 139.748 445.021 139.469 444.742 139.051L443.07 135.428C442.513 135.15 442.373 134.871 441.955 135.01ZM430.809 152.287C426.629 154.238 421.753 152.427 419.802 148.386C417.851 144.345 419.663 139.33 423.703 137.379C427.883 135.428 432.76 137.24 434.71 141.28C436.661 145.321 434.989 150.337 430.809 152.287Z" fill="#2E3190"/>
<path opacity="0.31" d="M486.402 158.837L484.73 159.673C484.173 159.951 483.615 159.673 483.337 159.255C481.665 157.165 479.993 155.771 478.181 154.517C477.763 154.239 477.485 153.681 477.763 153.124L478.599 150.616C478.739 150.059 478.46 149.362 477.903 149.084L472.887 147.272C472.329 146.994 471.633 147.412 471.354 147.969L470.379 150.477C470.24 150.895 469.682 151.313 469.264 151.174C467.035 150.895 464.388 151.174 462.158 151.592C461.601 151.731 460.904 151.592 460.626 151.034L459.511 148.805C459.232 148.248 458.814 147.412 458.257 147.69L453.52 149.92C452.963 150.198 452.684 151.313 452.963 151.87L454.077 154.099C454.356 154.657 454.217 155.075 453.799 155.493C452.127 156.886 450.594 158.558 449.479 160.369C449.201 160.787 448.643 161.066 448.086 160.787L445.857 159.951C445.299 159.673 444.603 160.091 444.324 160.648L442.652 165.525C442.513 166.082 442.792 166.779 443.349 167.057L445.857 168.032C446.414 168.172 446.693 168.729 446.553 169.286C446.275 171.516 446.275 173.745 446.971 176.253C447.111 176.81 446.832 177.368 446.414 177.646L444.324 178.622C443.767 178.9 443.349 179.597 443.627 180.154L445.857 184.891C446.135 185.449 446.832 185.449 447.529 185.17L449.619 184.195C450.037 183.916 450.733 184.195 451.012 184.613C452.405 186.285 454.077 187.957 456.028 189.071C456.446 189.35 456.725 189.907 456.446 190.465L455.61 192.555C455.331 193.112 455.749 193.809 456.307 194.087L461.183 195.759C461.74 196.038 462.437 195.62 462.716 195.063L463.412 192.973C463.552 192.415 464.109 192.137 464.666 192.137C466.896 192.415 469.125 192.276 471.354 191.858C471.911 191.719 472.33 191.997 472.608 192.555L473.583 194.784C473.862 195.341 474.559 195.341 475.255 195.063L479.993 192.833C480.55 192.555 480.55 192.276 480.271 191.719L479.296 189.489C479.017 189.071 479.435 188.375 479.853 187.957C481.665 186.563 483.476 184.613 484.73 182.662C485.009 182.244 485.566 181.966 486.123 182.244L488.352 182.941C488.91 183.08 489.606 182.802 489.885 182.244L491.696 177.368C491.975 176.81 491.557 176.114 491 175.835L489.049 175.278C488.492 175.138 488.213 174.581 488.213 174.024C488.492 171.794 488.352 169.286 487.934 167.197C487.795 166.639 488.074 166.082 488.492 165.803L490.164 164.967C490.721 164.689 490.582 164.41 490.303 163.853L488.074 159.115C487.238 158.976 486.959 158.558 486.402 158.837ZM471.354 181.966C465.781 184.613 459.093 182.244 456.446 176.671C453.799 171.098 456.167 164.41 461.74 161.763C467.314 159.115 474.001 161.484 476.649 167.057C479.296 172.77 476.927 179.318 471.354 181.966Z" fill="#2E3190"/>
<path opacity="0.31" d="M28.5627 441.677C24.6615 441.12 20.7602 440.841 17.1376 439.308C12.8184 437.497 8.91715 433.178 9.75313 428.58C10.5891 424.539 14.6297 422.031 18.6703 421.474C22.7108 421.056 26.7514 422.171 30.6527 423.146C37.3405 424.818 44.1677 426.072 50.9949 426.908C60.8873 428.023 71.7551 428.441 79.5576 434.71C84.7128 438.89 88.4747 445.578 95.0232 446.832C96.4165 447.111 97.8098 447.111 99.0638 447.529C100.318 447.947 101.711 448.922 101.85 450.315C102.268 453.102 95.3019 453.52 93.3513 453.938C87.6387 455.471 82.2049 457.561 76.6316 459.233C70.7798 460.905 64.3706 460.487 58.3794 459.929C52.3882 459.372 45.4217 458.397 41.9384 453.381C40.1271 450.733 39.4305 447.39 37.2012 445.16C35.5292 443.488 33.1606 442.652 30.9313 442.234C30.2347 441.956 29.3987 441.816 28.5627 441.677Z" fill="#2E3190"/>
<path d="M11.9824 417.291C11.2858 420.496 11.9824 423.7 13.7937 426.208C15.3263 428.298 17.5556 429.831 20.3422 430.528C23.4075 431.224 26.3334 430.667 28.702 429.134L89.3107 442.231L92.6546 426.905L31.9066 413.808C29.6774 411.161 27.4481 409.628 25.0795 409.071C22.2929 408.374 19.2276 408.931 16.859 410.603C14.351 411.997 12.6791 414.365 11.9824 417.291ZM20.3422 416.734L20.4816 416.594C20.7602 416.455 21.0389 416.455 21.3175 416.316H21.4569C22.0142 416.176 22.5715 416.176 23.1288 416.316C24.5221 416.594 25.6368 418.406 25.6368 419.799C25.4974 421.332 24.5221 422.725 22.8502 423.004C22.9895 423.004 23.2682 422.864 23.4075 422.864C22.5715 423.143 21.8749 423.282 21.0389 423.004C20.2029 422.725 19.3669 422.028 18.9489 421.332C18.2523 419.799 18.6703 417.57 20.3422 416.734Z" fill="#2E3190"/>
<path d="M29.3987 424.259L89.868 437.356" stroke="white" stroke-miterlimit="10"/>
<path d="M30.792 418.268L91.2613 431.365" stroke="white" stroke-miterlimit="10"/>
<path d="M82.0655 433.595C81.2295 437.496 81.9262 441.398 84.0161 444.741C84.1555 445.02 84.2948 445.299 84.5735 445.438C86.6634 448.364 89.7287 450.454 93.3513 451.151C96.6952 451.847 100.178 451.429 103.244 449.897L105.194 448.921L93.9086 441.119L100.039 432.341L111.046 440.004L111.186 437.636C111.604 430.39 106.727 423.981 99.6211 422.309C91.6793 420.498 83.7375 425.653 82.0655 433.595Z" fill="white" stroke="black" stroke-miterlimit="10"/>
<path opacity="0.31" d="M125.397 424.399C117.873 423.563 108.678 420.776 107.145 413.392C105.752 406.982 111.325 400.713 117.734 398.762C124.143 396.811 130.831 398.205 137.38 399.041C146.993 400.434 216.101 401.409 214.151 415.064C213.175 421.891 180.154 423.423 173.884 424.12C157.583 425.792 141.42 426.21 125.397 424.399Z" fill="#2E3190"/>
<path d="M183.359 402.524L182.244 406.843L129.995 397.647L131.11 393.328L183.359 402.524Z" fill="black"/>
<path d="M221.256 403.639C221.396 403.778 221.396 403.918 221.535 404.057C222.928 406.008 223.486 408.376 223.068 410.605C222.232 415.343 217.495 418.687 212.479 417.711L161.623 409.073L164.27 392.214L215.544 400.016C217.773 400.574 219.863 401.828 221.256 403.639Z" fill="white" stroke="black" stroke-miterlimit="10"/>
<path d="M140.306 386.919L146.993 396.532L145.739 400.434L136.962 406.286L117.177 397.926L119.267 386.779L140.306 386.919Z" fill="white" stroke="black" stroke-miterlimit="10"/>
<path d="M176.253 400.017L223.207 407.54" stroke="black" stroke-miterlimit="10"/>
<path d="M175.277 405.868L222.232 413.392" stroke="black" stroke-miterlimit="10"/>
<path d="M165.803 409.769L169.008 392.771" stroke="black" stroke-miterlimit="10"/>
<path d="M123.447 397.509L134.593 401.689" stroke="black" stroke-miterlimit="10"/>
<path d="M164.41 181.686C159.115 180.99 153.681 182.522 148.665 183.358C146.575 183.776 144.625 184.194 142.535 184.612C140.027 185.17 137.24 185.448 134.872 186.563C131.249 188.235 128.602 191.579 126.512 195.062C124.422 198.545 122.75 202.307 121.078 206.209C118.291 212.339 115.923 218.47 113.415 224.6C113.275 225.018 113.415 225.436 113.833 225.575C117.595 227.247 121.217 229.198 124.84 231.149C124.979 231.288 125.258 231.149 125.258 231.009C126.233 227.944 138.773 207.323 141.699 205.93C143.231 205.233 145.6 205.094 147.272 204.537C151.034 203.422 154.796 202.029 158.279 200.357C161.623 198.824 164.688 197.013 167.754 194.923C168.729 194.226 169.565 193.251 170.122 192.136C172.491 186.842 169.844 182.383 164.41 181.686Z" fill="white" stroke="black" stroke-miterlimit="10"/>
<path d="M323.664 255.393C322.689 253.581 321.574 251.909 320.599 250.098C320.042 248.983 319.624 247.869 318.648 247.033C317.394 245.918 315.583 245.639 313.772 245.361C311.264 245.082 308.616 244.664 306.248 245.361C305.273 245.639 304.158 246.057 303.461 246.754C301.371 248.844 303.322 252.606 305.412 254.139C307.641 255.671 310.288 256.089 312.378 257.761C314.468 259.572 315.722 262.08 316.976 264.588C318.091 266.957 319.345 269.326 320.46 271.694C320.738 272.112 320.878 272.669 321.435 272.809C321.713 272.948 321.992 272.809 322.271 272.809C325.197 272.112 327.008 268.908 327.008 265.842C327.287 261.802 325.615 258.597 323.664 255.393Z" fill="white" stroke="black" stroke-miterlimit="10"/>
<path d="M141.281 201.889C143.231 203.701 145.6 205.094 147.829 205.79C150.477 206.487 153.681 206.069 155.353 203.84C156.886 201.889 157.443 198.545 159.951 198.127C160.648 197.988 161.484 198.267 162.18 198.406C165.664 199.521 169.147 201.471 172.769 200.914C175.138 200.635 177.228 199.242 178.761 197.431C180.572 195.341 181.687 192.693 181.269 189.907C180.154 184.612 173.327 183.358 168.868 183.219C162.877 182.801 156.747 182.94 151.034 181.686C146.715 180.711 143.092 180.85 139.609 184.473C136.404 187.817 135.847 193.251 137.798 197.431C138.634 199.103 139.888 200.496 141.281 201.889Z" fill="white" stroke="black" stroke-miterlimit="10"/>
<path d="M174.72 168.868C167.614 169.565 165.385 174.302 161.623 179.736C158.558 184.194 155.771 190.743 159.672 195.48C162.877 199.242 167.057 200.914 171.098 203.283C174.581 205.233 177.367 206.905 181.826 206.627C192.554 206.209 203.561 207.463 214.429 207.323C221.396 207.323 228.084 207.323 234.771 205.233C240.623 203.422 242.713 197.709 244.385 191.997C245.918 186.145 246.754 177.925 242.713 172.769C242.156 172.073 241.599 171.515 240.902 170.958C239.927 170.122 238.673 169.565 237.558 169.147C235.329 168.171 232.821 167.335 230.452 167.893C229.895 168.032 229.338 168.171 228.92 168.311C224.043 169.843 219.306 170.401 214.151 170.958C208.438 171.515 202.447 170.958 196.734 170.401C189.628 169.843 182.105 168.032 174.72 168.868Z" fill="white" stroke="black" stroke-miterlimit="10"/>
<path d="M308.477 251.909C308.756 249.958 309.452 244.942 308.198 243.688C306.944 242.434 305.273 242.434 303.74 242.016C301.789 241.598 299.699 240.902 297.749 240.345C293.708 239.23 289.528 237.976 285.488 236.722C278.8 234.771 272.53 232.403 266.121 229.755C257.482 226.133 248.426 222.092 239.091 223.068C236.861 223.346 234.771 224.182 232.681 224.6C230.313 225.158 227.805 225.994 225.715 227.526C222.65 229.755 221.953 233.796 223.207 237.279C226.412 245.639 235.05 246.057 242.435 248.147C246.336 249.122 250.376 249.401 254.417 249.68C267.793 250.794 281.029 252.327 294.265 254.417C297.609 254.974 300.953 255.392 304.297 255.95C305.273 256.089 306.387 256.507 307.502 256.507C307.92 254.974 308.198 253.442 308.477 251.909Z" fill="#8B8FEF"/>
<path d="M228.502 243.271C229.059 243.41 229.616 243.41 230.313 243.271C237.419 241.459 243.549 235.19 247.868 229.477C254.696 220.421 258.876 209.971 265.285 200.775C267.235 197.988 269.883 196.038 271.555 192.973C274.481 187.539 275.874 180.433 274.759 174.442C272.53 162.877 259.154 159.394 248.844 161.066C242.156 162.181 236.165 166.082 229.477 167.336C228.641 167.475 227.805 167.614 227.108 168.172C226.83 168.311 226.69 168.729 226.551 169.147C226.551 177.368 226.551 185.449 226.551 193.669C226.412 198.685 227.108 205.234 226.412 209.414C225.994 211.921 223.904 214.847 223.207 217.355C221.256 223.347 220.699 229.756 222.789 235.747C223.346 238.116 225.576 242.574 228.502 243.271Z" fill="#8B8FEF"/>
<path d="M192.136 190.883C192.276 191.161 192.415 191.44 192.554 191.719Z" fill="#EC9191"/>
<path d="M190.046 182.244C192.415 178.482 194.505 174.023 196.177 169.565C198.406 163.713 199.939 157.582 200.496 151.87C201.054 146.575 200.775 141.141 200.357 135.847C199.382 120.103 199.242 104.219 197.431 88.4746C195.759 89.3106 184.195 90.4252 184.195 90.0072C182.105 107.424 179.875 124.84 177.785 142.256C177.228 146.297 176.81 150.477 175.417 154.378C174.023 158.418 171.794 162.18 169.704 165.942C166.221 172.351 158 183.637 159.533 191.022" fill="white"/>
<path d="M190.046 182.244C192.415 178.482 194.505 174.023 196.177 169.565C198.406 163.713 199.939 157.582 200.496 151.87C201.054 146.575 200.775 141.141 200.357 135.847C199.382 120.103 199.242 104.219 197.431 88.4746C195.759 89.3106 184.195 90.4252 184.195 90.0072C182.105 107.424 179.875 124.84 177.785 142.256C177.228 146.297 176.81 150.477 175.417 154.378C174.023 158.418 171.794 162.18 169.704 165.942C166.221 172.351 158 183.637 159.533 191.022" stroke="black" stroke-miterlimit="10"/>
<path d="M226.69 208.16C231.149 199.661 236.443 191.719 242.574 184.474" stroke="white" stroke-miterlimit="10"/>
<path d="M193.39 188.096C193.112 185.866 192.694 183.637 192.415 181.408C192.276 180.293 192.136 179.178 191.858 178.064C191.858 177.924 191.858 177.924 191.718 177.785C189.489 182.383 185.588 185.866 181.547 188.792C185.309 190.882 189.071 193.111 192.833 195.201C193.948 195.759 193.53 188.932 193.39 188.096Z" fill="black"/>
<path d="M153.263 190.046C153.263 190.743 152.706 191.579 152.149 192.136C158.836 195.48 159.951 208.995 159.254 215.404C158.836 219.723 157.583 223.903 157.165 228.223C156.607 234.632 158.279 241.459 162.738 246.196C168.032 251.909 177.089 253.72 184.334 250.933C191.579 248.147 197.152 241.32 198.685 233.656C202.586 214.847 184.334 198.267 172.63 186.145C168.032 181.408 162.18 178.064 155.353 178.342C153.263 178.482 151.313 178.76 149.223 179.318C144.067 180.432 139.47 182.383 136.822 186.981C135.29 189.767 132.364 191.997 131.528 195.062C130.831 197.431 131.528 200.078 133.339 201.75C135.15 203.422 137.937 203.7 140.027 202.447C144.625 199.66 143.092 189.628 149.362 189.907C149.223 189.349 149.641 188.792 150.198 188.513C150.755 188.235 151.313 188.235 151.87 188.374C152.149 188.374 152.427 188.374 152.567 188.513C153.263 188.792 153.263 189.628 153.263 190.046Z" fill="black"/>
<path d="M149.78 204.259C149.362 202.865 149.641 201.193 150.616 199.939Z" fill="white"/>
<path d="M149.78 204.259C149.362 202.865 149.641 201.193 150.616 199.939" stroke="black" stroke-miterlimit="10"/>
<path d="M273.087 186.285C270.44 192.973 265.285 198.546 262.637 205.373" stroke="white" stroke-miterlimit="10"/>
<path opacity="0.31" d="M459.511 413.253C458.954 414.228 458.675 415.343 458.675 416.597C458.815 418.826 460.486 420.916 462.576 421.752C464.666 422.728 467.035 422.867 469.264 422.728C476.509 422.449 483.476 420.498 490.164 417.851C496.016 415.482 503.121 413.114 507.719 408.655C508.834 407.541 509.67 405.59 508.695 404.336C507.998 403.361 506.744 403.082 505.49 402.803C496.573 401.271 487.377 401.689 478.599 403.918C473.583 405.172 462.576 407.68 459.511 413.253Z" fill="#2E3190"/>
<path d="M496.852 345.26C496.852 344.982 496.852 344.842 496.991 344.564C497.409 341.917 499.499 339.966 500.892 337.737C502.286 335.507 502.982 332.999 503.122 330.491C503.261 325.615 503.122 319.484 505.211 315.026C507.023 310.985 511.481 308.895 513.85 304.994C515.104 302.904 515.522 300.396 516.079 298.027C516.915 294.266 518.448 290.504 520.956 287.578C522.906 285.348 525.414 283.537 527.922 281.865C530.43 280.193 532.799 278.661 535.585 277.685C539.208 276.431 543.249 276.013 544.921 279.775C546.314 282.84 545.617 287.02 544.224 289.946C542.97 292.454 541.019 294.405 539.208 296.495C536.003 300.117 533.078 303.879 530.43 307.92C529.734 309.035 528.898 310.289 528.758 311.543C528.619 312.796 529.037 314.19 529.176 315.444C530.012 321.992 527.365 327.287 522.21 331.327C518.169 334.532 515.661 336.204 514.686 341.777C514.129 345.121 513.85 348.744 511.899 351.67C511.203 352.784 510.088 353.899 509.252 354.874C505.908 358.775 503.818 363.791 503.261 369.086C502.982 371.733 502.425 377.446 498.384 376.331C493.229 374.938 493.926 360.029 495.458 356.546C496.155 355.014 496.991 353.62 497.409 352.088C497.548 349.719 496.712 347.49 496.852 345.26Z" fill="#2E3190"/>
<path d="M475.255 356.128C475.255 354.177 475.534 352.227 476.091 350.276C476.927 347.768 478.181 345.26 477.763 342.752C477.067 338.433 472.19 336.204 470.658 332.163C468.568 326.59 473.444 321.156 474.559 315.304C475.534 310.427 473.583 305.412 472.33 300.535C471.772 298.445 468.707 286.602 474.837 288.413C475.813 288.692 476.37 289.667 476.927 290.503C479.853 296.216 480.689 303.461 485.427 308.059C487.377 310.009 489.885 311.263 491.696 313.214C494.622 316.419 495.458 321.156 494.901 325.475C493.786 332.999 486.263 338.015 489.328 345.678C490.582 348.883 492.672 351.669 494.344 354.595C497.966 360.726 505.211 385.387 490.582 376.888C482.919 372.569 475.395 365.184 475.255 356.128Z" fill="white" stroke="black" stroke-miterlimit="10"/>
<path d="M504.097 356.686C504.236 356.547 504.236 356.407 504.375 356.268C506.187 352.785 508.695 349.72 510.506 346.236C512.039 343.45 513.153 340.384 514.825 337.737C516.497 335.09 518.866 332.582 521.931 331.607C523.882 331.049 526.808 331.328 528.34 332.861C528.758 333.279 529.176 333.836 529.594 334.393C530.43 335.229 531.545 335.787 532.659 336.344C537.954 339.548 540.183 345.54 542.134 351.113C544.224 357.243 546.732 362.399 547.707 368.668C547.846 370.062 547.986 371.734 547.011 372.848C546.175 373.684 544.781 373.824 543.527 373.406C542.413 372.988 541.437 372.152 540.462 371.316C539.347 370.201 538.093 369.086 537.397 367.693C536.839 366.439 536.561 365.185 535.864 363.931C535.028 362.538 533.774 361.563 532.52 360.448C529.037 357.383 526.808 353.76 524.3 349.859C521.792 350.834 519.284 354.178 516.497 355.711C514.129 356.965 510.088 357.522 508.695 360.169C507.441 362.817 507.998 366.579 507.023 369.504C504.933 375.914 499.917 375.078 500.614 368.111C501.171 364.21 502.285 360.309 504.097 356.686Z" fill="white" stroke="black" stroke-miterlimit="10"/>
<path d="M519.702 368.946H472.329V374.798H476.231L481.804 406.426H510.367L515.94 374.798H519.702V368.946Z" fill="#2E3190"/>
<path d="M474.837 375.356H517.333" stroke="white" stroke-miterlimit="10"/>
<path d="M474.698 329.377C475.314 329.377 475.813 328.878 475.813 328.262C475.813 327.647 475.314 327.147 474.698 327.147C474.083 327.147 473.583 327.647 473.583 328.262C473.583 328.878 474.083 329.377 474.698 329.377Z" fill="black"/>
<path d="M486.263 332.859C486.263 333.555 485.705 333.973 485.148 333.973C484.451 333.973 484.033 333.416 484.033 332.859C484.033 332.301 484.591 331.744 485.148 331.744C485.705 331.605 486.263 332.162 486.263 332.859Z" fill="black"/>
<path d="M483.894 345.538C483.894 346.235 483.337 346.653 482.779 346.653C482.083 346.653 481.665 346.096 481.665 345.538C481.665 344.981 482.222 344.424 482.779 344.424C483.476 344.424 483.894 344.842 483.894 345.538Z" fill="black"/>
<path d="M490.86 320.041C490.86 320.738 490.303 321.156 489.746 321.156C489.049 321.156 488.631 320.599 488.631 320.041C488.631 319.345 489.188 318.927 489.746 318.927C490.303 318.927 490.86 319.484 490.86 320.041Z" fill="black"/>
<path d="M477.067 297.051C477.067 297.748 476.509 298.166 475.952 298.166C475.395 298.166 474.837 297.608 474.837 297.051C474.837 296.355 475.395 295.937 475.952 295.937C476.509 295.937 477.067 296.355 477.067 297.051Z" fill="black"/>
<path d="M491.975 360.446C492.591 360.446 493.09 359.947 493.09 359.331C493.09 358.716 492.591 358.217 491.975 358.217C491.359 358.217 490.86 358.716 490.86 359.331C490.86 359.947 491.359 360.446 491.975 360.446Z" fill="black"/>
<path d="M482.779 357.103C482.779 357.8 482.222 358.218 481.665 358.218C480.968 358.218 480.55 357.66 480.55 357.103C480.55 356.406 481.107 355.988 481.665 355.988C482.222 355.849 482.779 356.406 482.779 357.103Z" fill="black"/>
<path d="M481.665 314.329C481.665 315.026 481.107 315.444 480.55 315.444C479.853 315.444 479.435 314.887 479.435 314.329C479.435 313.633 479.993 313.215 480.55 313.215C481.107 313.215 481.665 313.633 481.665 314.329Z" fill="black"/>
<path opacity="0.31" d="M258.736 480.412C250.934 478.88 243.131 476.929 235.468 474.7C228.223 472.749 220.56 470.241 215.683 464.529C201.054 447.391 224.879 429.696 237.558 422.312C247.868 416.32 260.13 409.214 272.391 411.026C279.357 412.001 285.906 414.927 292.315 417.853C313.772 427.606 335.089 438.613 358.497 441.678C363.373 442.375 403.918 443.35 402.107 450.038C401.828 451.153 400.853 452.128 399.878 452.825C391.379 459.791 380.79 463.414 370.34 466.897C344.146 475.675 317.116 484.174 289.528 483.895C279.078 483.756 268.768 482.502 258.736 480.412Z" fill="#2E3190"/>
<path d="M273.087 428.862C269.743 435.132 275.038 439.59 279.357 443.77C280.611 444.885 281.865 445.999 283.398 446.696C286.045 447.811 289.11 447.532 291.897 447.253C312.518 445.024 333.417 442.237 353.62 437.918C358.357 436.943 363.095 435.689 367.832 434.574C373.962 433.181 380.372 430.534 386.363 428.165C392.354 425.796 397.927 422.453 402.804 418.273C402.943 418.133 402.943 418.133 403.082 417.994C403.918 417.437 404.615 416.879 405.312 415.765C407.82 412.839 409.631 409.216 408.098 405.872C406.426 401.971 401.55 400.856 397.231 400.578C384.551 399.602 372.012 400.996 359.472 402.807C351.112 404.061 342.752 405.872 334.253 406.848C325.615 407.962 317.534 406.987 308.895 407.126C294.405 407.405 280.193 415.765 273.087 428.862Z" fill="black"/>
<path d="M309.731 398.068C304.576 395.978 299.142 397.929 296.216 391.938C295.241 389.848 294.683 387.479 293.987 385.111C291.618 378.144 286.463 372.153 279.914 368.809C285.07 363.933 291.897 361.564 298.167 358.359C303.879 355.433 309.174 351.532 313.911 347.213C318.23 343.172 325.057 334.394 321.435 327.985C318.509 322.83 311.403 324.502 306.666 325.617C300.257 327.289 294.544 327.567 288.692 331.329C283.119 334.952 278.382 339.968 273.923 344.984C266.817 352.647 251.352 367.834 261.523 378.702C267.235 384.832 273.087 390.684 280.054 395.56C282.004 396.954 283.955 398.208 286.184 399.183C290.504 401.134 292.176 404.617 296.495 406.568C300.117 408.24 303.879 409.354 307.781 409.493C310.706 409.633 315.444 408.936 315.722 405.453C315.862 402.109 312.378 399.183 309.731 398.068Z" fill="white" stroke="black" stroke-miterlimit="10"/>
<path d="M382.74 388.594C380.232 391.938 375.913 394.167 371.872 393.192C367.553 392.217 364.767 388.176 362.398 384.414C358.775 378.423 355.292 372.153 353.481 365.465C351.391 358.081 350.555 346.098 357.939 341.222C363.234 337.738 371.733 339.689 375.913 344.148C384.691 353.901 390.543 375.079 383.715 387.061C383.297 387.619 383.019 388.176 382.74 388.594Z" fill="white" stroke="black" stroke-miterlimit="10"/>
<path d="M369.225 329.1C362.677 322.273 355.013 317.118 344.842 317.397C342.056 317.397 339.408 317.954 336.622 317.954C327.008 318.232 317.534 315.864 308.338 319.626C298.445 323.527 289.389 329.24 280.75 335.231C280.054 335.788 296.913 358.917 298.724 361.007C305.691 355.852 304.019 379.956 303.879 383.3C303.601 391.381 303.461 399.601 305.133 407.543C305.551 406.986 305.969 406.429 306.666 406.289C307.502 406.15 308.059 407.125 308.756 407.265C310.288 407.682 312.518 407.265 314.19 407.265C317.255 407.265 320.46 407.265 323.525 407.265C330.631 407.265 337.876 407.125 344.842 406.15C348.604 405.593 352.227 405.035 355.849 405.175C357.8 398.487 357.103 390.406 357.243 383.718C357.382 377.309 356.964 371.039 357.382 364.629C366.578 362.4 375.495 359.474 384.273 355.991C384.83 355.712 380.093 345.123 379.536 344.009C377.585 339.968 375.077 336.206 372.29 332.723C371.315 331.33 370.34 330.215 369.225 329.1Z" fill="#8B8FEF"/>
<path d="M318.509 449.203C317.116 450.597 289.25 456.588 289.25 456.588L287.996 442.376L313.911 433.041L318.509 449.203Z" fill="white" stroke="black" stroke-miterlimit="10"/>
<path d="M389.01 432.204C392.215 430.393 395.559 428.442 399.042 427.188C402.804 425.795 406.844 424.959 409.77 422.173C412.836 419.247 413.811 414.927 414.507 410.747C415.343 406.15 415.343 400.994 414.089 396.536C412.278 390.127 407.123 384.693 400.574 383.16C396.673 382.324 392.354 382.742 388.731 384.553C386.084 385.947 383.715 387.897 381.068 389.291C378.839 390.405 376.47 391.241 374.102 392.077C366.996 394.864 360.587 398.904 354.038 402.806C347.629 406.707 341.777 411.583 335.507 415.903C332.999 417.575 307.084 430.114 307.084 430.254C310.428 437.777 313.354 445.441 316.419 453.104C333.278 450.875 349.44 445.58 365.742 441.121C368.946 440.285 372.012 438.892 375.216 438.195C378.839 437.36 382.322 435.688 385.527 434.016C386.781 433.458 387.895 432.901 389.01 432.204Z" fill="#8B8FEF"/>
<path d="M288.274 458.119C283.119 459.094 277.964 457.979 272.391 457.422C268.071 457.004 263.613 457.701 259.294 457.143C253.581 456.307 249.123 452.267 248.705 446.415C248.426 443.21 248.287 439.588 250.516 437.08C252.327 435.129 255.114 434.433 257.761 434.711C260.408 434.99 262.916 435.965 265.424 436.801C269.743 438.334 274.063 439.309 278.521 440.284C282.144 440.981 285.209 442.792 288.692 441.12C288.832 440.981 289.11 440.981 289.25 440.981C289.528 441.12 289.528 441.26 289.668 441.538C290.922 445.161 292.036 448.644 293.151 452.406C293.708 454.357 294.544 455.332 293.012 456.586C291.897 457.422 289.807 457.84 288.274 458.119Z" fill="#2E3190"/>
<path d="M343.867 449.203C345.26 450.597 373.126 456.588 373.126 456.588L374.38 442.376L348.465 433.041L343.867 449.203Z" fill="white" stroke="black" stroke-miterlimit="10"/>
<path d="M272.391 433.876C266.957 431.786 261.802 429.417 256.925 426.491C255.253 425.516 253.581 424.401 252.466 422.869C250.794 420.639 250.237 417.853 249.68 415.206C247.729 405.174 245.082 397.511 252.327 389.012C258.179 382.045 267.793 379.398 275.735 384.414C280.89 387.618 284.512 393.609 290.225 395.56C293.29 396.675 296.913 396.396 299.978 397.789C302.765 399.043 305.551 401.273 308.198 402.805C314.608 406.706 320.46 411.583 326.729 415.902C329.237 417.574 355.153 430.114 355.153 430.253C351.809 437.777 348.883 445.44 345.818 453.103C328.959 450.874 312.796 445.58 296.495 441.121C288.414 439.031 280.193 436.802 272.391 433.876Z" fill="#8B8FEF"/>
<path d="M373.962 458.121C379.118 459.096 384.273 457.981 389.846 457.424C394.165 457.006 398.624 457.703 402.943 457.145C408.377 456.309 414.507 450.875 414.786 445.163C414.925 443.352 414.368 441.54 413.671 439.868C413.253 439.032 412.836 438.196 412.278 437.36C411.024 435.688 408.795 434.713 406.705 434.574C403.5 434.295 400.156 435.27 397.091 436.246C393.887 437.221 390.961 437.639 387.895 439.032C383.994 440.704 379.536 441.401 375.216 440.704C374.102 440.565 372.987 440.286 371.872 440.704C369.504 441.401 369.643 445.023 369.504 446.974C369.225 450.039 369.086 453.105 367.832 455.891C370.061 457.006 372.012 457.703 373.962 458.121Z" fill="#2E3190"/>
<path d="M361.562 341.64C361.562 341.501 361.562 341.501 361.562 341.64C361.423 340.387 361.423 339.133 361.283 338.018C361.283 337.461 361.144 336.764 361.283 336.207C361.562 334.395 363.095 333.002 364.349 331.748C365.324 330.773 374.102 322.274 374.798 322.692C377.585 324.782 379.257 322.97 381.208 320.741C381.765 320.044 382.462 319.348 382.462 318.372C382.462 317.536 381.347 316.7 380.65 317.118C382.183 315.307 383.715 313.635 385.248 311.684C386.502 310.013 387.895 309.037 386.92 306.947C385.527 303.464 382.462 300.956 379.118 299.284C376.47 298.03 372.29 296.219 369.225 296.358C365.881 296.637 364.209 299.423 361.701 301.095C361.562 301.235 361.423 301.235 361.283 301.235C361.144 301.235 361.005 301.095 360.865 300.956C359.89 300.12 358.357 300.259 357.382 300.956C356.407 301.653 355.849 302.907 355.292 304.021C355.013 304.718 354.735 305.554 354.874 306.39C355.013 307.226 355.71 307.923 356.546 307.783C355.989 307.923 354.874 312.66 354.735 313.217C353.899 316.282 352.088 317.954 349.858 320.184C347.908 322.274 345.678 324.503 342.892 324.364C341.638 324.364 340.105 323.946 339.408 324.921C339.13 325.2 339.13 325.757 339.13 326.175C338.572 332.445 342.613 337.879 347.629 341.083C350.416 343.312 361.841 347.91 361.562 341.64Z" fill="white" stroke="black" stroke-miterlimit="10"/>
<path d="M359.89 414.65H288.414C287.16 414.65 286.045 413.674 286.045 412.281V369.228C286.045 367.974 287.02 366.859 288.414 366.859H359.751C361.005 366.859 362.119 367.835 362.119 369.228V412.42C362.119 413.674 361.144 414.65 359.89 414.65Z" fill="#2E3190"/>
<path d="M328.68 389.431C328.68 391.939 326.729 393.89 324.221 393.89C321.714 393.89 319.763 391.939 319.763 389.431C319.763 386.923 321.714 384.973 324.221 384.973C326.59 384.973 328.68 386.923 328.68 389.431Z" fill="black"/>
<path d="M393.887 298.726C393.747 298.308 393.747 297.751 393.469 297.333C393.051 296.218 392.215 295.103 391.1 294.546C390.264 294.128 389.289 293.989 388.313 293.849C387.199 293.71 386.084 293.71 384.969 293.849C383.855 293.849 382.74 293.989 381.765 293.989C380.093 293.849 378.421 293.292 376.888 292.735C375.356 292.178 373.684 291.481 372.012 291.342C368.529 291.063 366.021 293.71 363.931 296.218C361.562 299.005 359.751 302.209 358.079 305.414C354.735 311.684 353.759 319.347 360.029 324.084C368.25 330.354 378.142 321.716 384.273 316.56C385.527 315.446 386.92 314.749 388.035 313.495C389.289 312.102 390.264 310.43 391.1 308.758C391.936 307.086 392.772 305.553 393.329 303.742C393.887 302.07 394.165 300.398 393.887 298.726ZM365.881 319.626C364.627 319.347 363.234 318.929 362.119 318.093C361.423 317.536 362.259 316.282 362.955 316.839C363.791 317.536 365.185 317.814 366.16 318.093C366.996 318.372 366.717 319.765 365.881 319.626ZM385.527 308.618C385.248 309.454 384.691 310.29 384.134 311.126C381.486 314.61 377.724 318.929 373.962 321.019C373.823 321.158 373.684 321.158 373.544 321.298C372.569 317.814 371.176 314.192 367.971 312.102C365.185 310.29 361.701 310.012 358.497 310.43C359.611 305.553 363.373 298.029 369.086 297.89C371.176 297.89 373.266 298.865 374.938 300.119C376.749 301.373 378.282 302.767 379.954 304.021C382.183 305.275 386.363 305.553 385.527 308.618Z" fill="black"/>
<path d="M373.266 325.059C373.405 324.641 373.684 324.223 373.823 323.805C375.356 320.6 378.839 319.207 381.486 316.978C383.158 315.584 384.83 314.47 386.502 313.076C387.338 312.38 388.035 311.544 388.871 310.986C389.428 310.708 390.264 310.568 390.682 310.986C391.1 311.265 391.1 311.822 391.239 312.38C391.518 315.724 389.567 318.232 388.035 320.879C386.641 323.248 384.412 324.641 382.879 327.009C381.486 329.239 381.626 332.165 381.904 334.812C382.462 339.271 382.88 343.729 383.437 348.188C383.855 352.368 384.969 355.851 385.945 359.891C387.477 366.022 387.338 373.267 387.477 379.676C387.617 386.085 383.437 393.749 376.749 395.003C363.513 397.65 366.299 378.84 366.021 371.316C365.742 365.325 367.135 359.195 368.528 353.343C369.922 347.352 370.061 341.082 371.036 334.951C371.454 331.607 372.012 328.263 373.266 325.059Z" fill="white" stroke="black" stroke-miterlimit="10"/>
<path d="M373.266 388.175C373.266 388.733 373.266 389.29 373.126 389.708C372.987 390.823 372.151 392.077 370.897 392.216C369.643 392.355 368.528 391.519 367.692 390.544C364.349 386.782 362.537 382.045 362.537 377.029C362.537 375.636 362.677 374.103 363.513 372.988C364.349 371.874 366.021 371.177 367.275 371.874C368.11 372.431 368.528 373.406 368.807 374.242C369.922 377.308 371.036 380.373 372.151 383.299C372.708 384.692 373.126 386.643 373.266 388.175Z" fill="white"/>
<path d="M378.003 389.429C377.306 389.847 376.61 390.126 375.913 389.987C375.356 389.987 375.216 390.823 375.774 390.962C376.888 391.241 378.003 391.101 378.7 390.126C378.978 389.708 378.421 389.151 378.003 389.429Z" fill="black"/>
<path d="M263.334 372.293C262.777 371.735 262.359 371.039 262.498 370.203C262.638 369.645 262.359 369.088 261.662 368.809C261.105 368.67 260.408 368.949 260.269 369.645C259.99 371.178 260.408 372.71 261.662 373.825C262.777 374.8 264.309 373.268 263.334 372.293Z" fill="black"/>
<path d="M305.133 444.743C312.1 446.415 319.066 447.808 326.172 448.923" stroke="white" stroke-miterlimit="10"/>
<path d="M351.809 438.056C352.784 435.826 353.76 433.597 354.735 431.507C345.678 426.491 336.901 421.057 327.983 415.763" stroke="white" stroke-miterlimit="10"/>
<path d="M293.569 440.145C287.02 438.613 280.472 436.523 274.202 434.015" stroke="white" stroke-miterlimit="10"/>
</svg>
